<svg xmlns="http://www.w3.org/2000/svg" width="16" height="16"><g color="#000" fill="#2e3436"><path d="M202.922-1056.28c-1.877.04-3.813.149-5.703.265-29.705 2.122-58.35 11.935-83.016 28.38C35.96-975.652 15.008-870.09 67.257-792.114L349.46-980.69c-31.579-47.492-84.637-75.346-140.969-75.59-1.877-.008-3.693-.04-5.57 0zm544.512 0c-2.315.04-4.69.116-7.028.265-52.515 3.713-100.787 31.297-129.962 75.325l282.203 188.577c52.25-77.977 31.296-183.538-46.946-235.523-27.152-18.101-58.837-28.031-91.37-28.644-2.324-.044-4.58-.04-6.897 0zM479.952-920.484c-242.948 0-441.34 198.657-441.34 441.34 0 114.578 44.294 219.343 116.17 297.85l-27.848 27.054c-26.788 26.257-27.319 69.224-1.061 96.012 25.992 26.788 68.96 27.584 96.012 1.326l40.05-38.988c64.185 36.867 138.714 58.085 218.017 58.085 80.63 0 155.954-21.749 221.2-59.942l34.215 37.663c25.196 27.849 67.898 29.97 95.747 4.774 27.849-25.197 29.705-68.164 4.774-95.747l-28.91-32.093c70.816-78.507 114.313-182.212 114.313-295.994 0-242.683-198.39-441.34-441.339-441.34zm0 135.797c23.223 0 45.797 2.714 67.5 7.56-5.467 4.977-10.554 10.373-14.985 16.576-8.333 11.667-12.466 25.246-12.466 40.58h-40.049c-22 0-40.827 7.806-56.493 23.472-15.667 15.667-23.473 34.494-23.473 56.494v79.966H560.05v40.05c0 22 7.806 40.826 23.473 56.493 15.666 15.667 34.493 23.473 56.493 23.473h79.966c20 0 37.318-6.297 51.985-18.964 5.153-4.45 9.64-9.315 13.394-14.588-2.956 167.12-137.799 299.973-305.41 299.973-27.695 0-54.504-3.668-79.966-10.476v-95.88H520v-40.05c0-44-15.612-81.653-46.945-112.987-31.333-31.333-69.12-46.945-113.12-46.945H174.41c.427-169.108 136.329-304.747 305.542-304.747z" style="display:inline;fill-opacity:1" transform="matrix(.01473 0 0 .01473 .431 16.557)"/></g></svg>
