<?xml version="1.0" encoding="UTF-8"?>
<svg xmlns="http://www.w3.org/2000/svg" version="1.1" xmlns:cc="http://creativecommons.org/ns#"
  xmlns:dc="http://purl.org/dc/elements/1.1/"
  xmlns:inkscape="http://www.inkscape.org/namespaces/inkscape"
  xmlns:rdf="http://www.w3.org/1999/02/22-rdf-syntax-ns#"
  xmlns:sodipodi="http://sodipodi.sourceforge.net/DTD/sodipodi-0.dtd"
  xmlns:svg="http://www.w3.org/2000/svg" xmlns:xlink="http://www.w3.org/1999/xlink"
  viewBox="0 0 128 128">
  <defs>
    <style>
      .cls-1 {
      fill: #131c1a;
      }

      .cls-1, .cls-2, .cls-3, .cls-4, .cls-5, .cls-6, .cls-7, .cls-8, .cls-9, .cls-10, .cls-11,
      .cls-12, .cls-13, .cls-14, .cls-15, .cls-16, .cls-17 {
      fill-rule: evenodd;
      }

      .cls-18 {
      fill: #f0f0f0;
      }

      .cls-19 {
      stroke: #62a0ea;
      stroke-width: 2px;
      }

      .cls-19, .cls-20 {
      fill: none;
      }

      .cls-21 {
      fill: url(#linear-gradient-4);
      }

      .cls-2 {
      fill: url(#linear-gradient-3);
      }

      .cls-22, .cls-14 {
      fill: #ed333b;
      }

      .cls-3 {
      fill-opacity: .2;
      }

      .cls-23 {
      fill: url(#linear-gradient-5);
      }

      .cls-24 {
      fill: url(#linear-gradient-8);
      }

      .cls-4 {
      fill: #d5d3cf;
      }

      .cls-5, .cls-25 {
      fill: #a51d2d;
      }

      .cls-6 {
      fill: #3d3846;
      }

      .cls-7 {
      fill: url(#linear-gradient-2);
      }

      .cls-8 {
      fill-opacity: .1;
      }

      .cls-9 {
      fill: #c0bfbc;
      }

      .cls-10 {
      fill: url(#linear-gradient-6);
      }

      .cls-26 {
      display: none;
      }

      .cls-11 {
      fill: #f6f5f4;
      }

      .cls-12 {
      fill: url(#linear-gradient-7);
      }

      .cls-13 {
      fill: #333;
      }

      .cls-20 {
      isolation: isolate;
      opacity: .1;
      stroke: #000;
      stroke-dasharray: 1 1;
      stroke-width: 1px;
      }

      .cls-15 {
      fill: url(#linear-gradient);
      }

      .cls-16 {
      fill: #434348;
      fill-opacity: .5;
      }

      .cls-17 {
      fill: #77767b;
      }
    </style>
    <linearGradient id="linear-gradient" x1="1203.8" y1="-514.9" x2="1243.7" y2="-514.9"
      gradientTransform="translate(-1154 -421) scale(1 -1)" gradientUnits="userSpaceOnUse">
      <stop
        offset="0"
        style="stop-color:#3d3846;stop-opacity:1" />
      <stop
        style="stop-color:#9a9996;stop-opacity:1"
        offset="0.04545455"
      />
      <stop
        offset="0.09090909"
        style="stop-color:#5e5c64;stop-opacity:1" />
      <stop
        style="stop-color:#5e5c64;stop-opacity:1"
        offset="0.90909088"
      />
      <stop
        offset="0.95341843"
        style="stop-color:#9a9996;stop-opacity:1" />
      <stop
        offset="1"
        style="stop-color:#3d3846;stop-opacity:1" />
    </linearGradient>
    <linearGradient id="linear-gradient-2" x1="1174.8" y1="-481.5" x2="1272.4" y2="-481.5"
      gradientTransform="translate(-1154 -421) scale(1 -1)" gradientUnits="userSpaceOnUse">
      <stop offset="0" stop-color="#3f3f3f" />
      <stop offset="0" stop-color="gray" />
      <stop offset="0" stop-color="#515151" />
      <stop offset=".9" stop-color="#515151" />
      <stop offset="1" stop-color="gray" />
      <stop offset="1" stop-color="#3f3f3f" />
    </linearGradient>
    <linearGradient id="linear-gradient-3" x1="1188.8" y1="-524.4" x2="1258.1" y2="-435.4"
      gradientTransform="translate(-1154 -421) scale(1 -1)" gradientUnits="userSpaceOnUse">
      <stop offset="0" stop-color="#3d3846" />
      <stop offset=".5" stop-color="#5e5c64" />
      <stop offset="1" stop-color="#77767c" />
    </linearGradient>
    <linearGradient id="linear-gradient-4" x1="-1333.7" y1="27.8" x2="-1330.7" y2="27.8"
      gradientTransform="translate(-1307.9 76.6) rotate(-180)" gradientUnits="userSpaceOnUse">
      <stop offset="0" stop-color="#9a9996" />
      <stop offset=".1" stop-color="#c0bfbc" />
      <stop offset=".4" stop-color="#deddda" />
      <stop offset=".6" stop-color="#d2d1ce" />
      <stop offset=".9" stop-color="#bbbab7" />
      <stop offset="1" stop-color="#9a9996" />
    </linearGradient>
    <linearGradient id="linear-gradient-5" x1="-986.2" y1="387.1" x2="-983.2" y2="387.1"
      gradientTransform="translate(-327.7 -942) rotate(-90)" xlink:href="#linear-gradient-4" />
    <linearGradient id="linear-gradient-6" x1="1180.9" y1="-522.7" x2="1198.2" y2="-534"
      gradientTransform="translate(-1154 -421) scale(1 -1)" gradientUnits="userSpaceOnUse">
      <stop offset="0" stop-color="#c0bfbc" />
      <stop offset=".3" stop-color="#c0bfbc" />
      <stop offset=".3" stop-color="#9a9996" />
      <stop offset=".4" stop-color="#deddda" />
      <stop offset=".5" stop-color="#d2d1ce" />
      <stop offset=".7" stop-color="#bbbab7" />
      <stop offset=".7" stop-color="#9a9996" />
      <stop offset="1" stop-color="#9a9996" />
    </linearGradient>
    <linearGradient id="linear-gradient-7" x1="-781.4" y1="1297.4" x2="-766.9" y2="1282.9"
      gradientTransform="translate(-415.2 1522.2) rotate(168)" xlink:href="#linear-gradient-6" />
    <linearGradient id="linear-gradient-8" x1="1188.3" y1="-486.3" x2="1204.8" y2="-497.3"
      gradientTransform="translate(-1154 -421) scale(1 -1)" gradientUnits="userSpaceOnUse">
      <stop offset="0" stop-color="#5e5c64" />
      <stop offset="0" stop-color="#5d5b63" />
      <stop offset="0" stop-color="#5d5b63" />
      <stop offset="0" stop-color="#5d5b63" />
      <stop offset=".1" stop-color="#5d5b63" />
      <stop offset=".1" stop-color="#5d5b63" />
      <stop offset=".2" stop-color="#5c5a62" />
      <stop offset=".2" stop-color="#5c5a62" />
      <stop offset=".2" stop-color="#5b5962" />
      <stop offset=".3" stop-color="#5b5961" />
      <stop offset=".3" stop-color="#5a5861" />
      <stop offset=".3" stop-color="#5a5760" />
      <stop offset=".3" stop-color="#59575f" />
      <stop offset=".4" stop-color="#58565f" />
      <stop offset=".4" stop-color="#58555e" />
      <stop offset=".4" stop-color="#57545d" />
      <stop offset=".5" stop-color="#56535d" />
      <stop offset=".5" stop-color="#55525c" />
      <stop offset=".5" stop-color="#54515b" />
      <stop offset=".5" stop-color="#53505a" />
      <stop offset=".6" stop-color="#524f59" />
      <stop offset=".6" stop-color="#514e58" />
      <stop offset=".6" stop-color="#504c57" />
      <stop offset=".7" stop-color="#4e4b56" />
      <stop offset=".7" stop-color="#4d4a55" />
      <stop offset=".7" stop-color="#4c4854" />
      <stop offset=".7" stop-color="#4b4752" />
      <stop offset=".8" stop-color="#494551" />
      <stop offset=".8" stop-color="#484450" />
      <stop offset=".8" stop-color="#46424e" />
      <stop offset=".9" stop-color="#45414d" />
      <stop offset=".9" stop-color="#433f4c" />
      <stop offset=".9" stop-color="#423d4a" />
      <stop offset=".9" stop-color="#403b49" />
      <stop offset="1" stop-color="#3e3947" />
      <stop offset="1" stop-color="#3d3846" />
    </linearGradient>
  </defs>
  <!-- Generator: Adobe Illustrator 28.6.0, SVG Export Plug-In . SVG Version: 1.2.0 Build 709)  -->
  <g>
    <g id="svg11300">
      <g id="layer1" class="cls-26" inkscape:groupmode="layer" inkscape:label="App Icon">
        <g id="layer2" inkscape:groupmode="layer" inkscape:label="baseplate"
          sodipodi:insensitive="true">
          <rect id="rect13805" class="cls-18" x="0" width="128" height="128"
            inkscape:label="512x512" />
        </g>
        <g id="layer3" inkscape:groupmode="layer" inkscape:label="hairlines"
          sodipodi:insensitive="true">
          <circle id="circle2892" class="cls-20" cx="64" cy="64" r="59.5" />
          <path id="rect2894" class="cls-20"
            d="M29.2,8.5h69.6c4.8,0,8.7,3.6,8.7,7.9v95.2c0,4.4-3.9,7.9-8.7,7.9H29.2c-4.8,0-8.7-3.6-8.7-7.9V16.4c0-4.4,3.9-7.9,8.7-7.9Z" />
          <rect id="rect2896" class="cls-20" x="12.5" y="12.5" width="103" height="103" rx="7.9"
            ry="7.9" />
          <path id="rect2898" class="cls-20"
            d="M16.4,28.5h95.2c4.4,0,7.9,3.9,7.9,8.7v69.6c0,4.8-3.6,8.7-7.9,8.7H16.4c-4.4,0-7.9-3.9-7.9-8.7V37.2c0-4.8,3.6-8.7,7.9-8.7Z" />
          <path id="path2900" class="cls-19" d="M0,117h128" inkscape:connector-curvature="0" />
        </g>
      </g>
      <g>
        <path class="cls-15"
          d="M52.8,71.5h33.9c1.7,0,3,1.3,3,3v38.7c0,1.6-1.3,3-3,3h-33.9c-1.7,0-3-1.3-3-3v-38.7c0-1.6,1.3-3,3-3Z" />
        <path class="cls-17"
          d="M52.8,69.8h33.9c1.7,0,3,1.3,3,3v38.7c0,1.6-1.3,3-3,3h-33.9c-1.7,0-3-1.3-3-3v-38.7c0-1.6,1.3-3,3-3Z" />
        <path class="cls-16" d="M49.8,58h39.8v46.5h-39.8v-46.5Z" />
        <path class="cls-7"
          d="M118.4,28.8v63.4c0,4.6-3.7,8.4-8.4,8.4H29.2c-4.6,0-8.4-3.8-8.4-8.4V28.8c0-4.6,3.7-8.4,8.4-8.4h80.8c4.6,0,8.4,3.7,8.4,8.4Z" />
        <path class="cls-13"
          d="M118.4,28.8v59.9c0,4.6-3.7,8.4-8.4,8.4H29.2c-4.6,0-8.4-3.7-8.4-8.4V28.8c0-4.6,3.7-8.4,8.4-8.4h80.8c4.6,0,8.4,3.7,8.4,8.4Z" />
        <path class="cls-2"
          d="M109.1,23.2c3.5,0,6.3,2.8,6.3,6.3v58.9c0,3.5-2.8,6.3-6.3,6.3H29.8c-3.5,0-6.3-2.8-6.3-6.3V29.5c0-3.5,2.8-6.3,6.3-6.3h79.3Z" />
        <g>
          <path class="cls-5"
            d="M13.3,57.1c-.7-.7,3.4-5.5,9.1-10.6,5.7-5.1,10.8-8.7,11.5-7.9.7.7-3.4,5.5-9.1,10.6-5.7,5.1-10.8,8.7-11.5,7.9Z" />
          <path class="cls-5"
            d="M73.4,44.3c.3-.9-5.3-3.6-12.6-6-7.3-2.4-13.4-3.5-13.7-2.6s5.3,3.6,12.6,6c7.3,2.4,13.4,3.5,13.7,2.6Z" />
          <rect class="cls-21" x="22.8" y="42.8" width="3" height="12"
            transform="translate(-26.4 28.8) rotate(-42)" />
          <rect class="cls-23" x="53.4" y="41.2" width="12" height="3"
            transform="translate(.4 85.9) rotate(-72)" />
          <path class="cls-10" d="M29.7,113.5l5.6-13.8,6,.2-5.7,7.7-4.5,8.1-1.4-2.3Z" />
          <path class="cls-12" d="M81.8,102.6l-10.7-10.4-5.4,2.7,8.4,4.7,7.5,5.6.3-2.6Z" />
          <path class="cls-5"
            d="M82.4,69.3c3.9,18.4-7.9,36.5-26.3,40.5-18.4,3.9-36.5-7.9-40.5-26.3-3.9-18.4,7.9-36.5,26.3-40.5,18.4-3.9,36.5,7.9,40.5,26.3Z" />
          <path class="cls-14"
            d="M82.1,68.2c3.9,18.4-7.9,36.5-26.3,40.5-18.4,3.9-36.5-7.9-40.5-26.3-3.9-18.4,7.9-36.5,26.3-40.5,18.4-3.9,36.5,7.9,40.5,26.3Z" />
          <path class="cls-11"
            d="M78.8,68.9c3.5,16.6-7.1,32.9-23.7,36.4-16.6,3.5-32.9-7.1-36.4-23.7-3.5-16.6,7.1-32.9,23.7-36.4,16.6-3.5,32.9,7.1,36.4,23.7Z" />
          <path class="cls-3"
            d="M60,57.2c-.2,0-.3.1-.4.3l-9.4,15.8c-1.1-.4-2.2-.3-3.2.4l-9.8-7.1c-.3-.2-.6-.3-1-.2-.6.2-1,.8-.8,1.4,0,.3.2.5.4.6l9.8,7.1c-.3,1-.1,2.1.5,3,.4.6,1,1,1.7,1.2l-3,18.4c0,.3.2.6.5.7.3,0,.6-.2.7-.5,0,0,0,0,0,0l3-18.4c.7,0,1.4-.2,2-.6,1.5-1.1,1.9-3.2.8-4.8-.2-.2-.3-.4-.5-.6l9.4-15.8c.2-.3,0-.6-.2-.8-.1,0-.3-.1-.4,0Z" />
          <g>
            <path class="cls-9" d="M48.8,75.3l-12.4-9" />
            <path class="cls-24"
              d="M48.8,76.9c-.3,0-.6,0-.9-.3l-12.4-9c-.7-.5-.9-1.5-.3-2.2.5-.7,1.5-.9,2.2-.3l12.4,9c.7.5.9,1.5.3,2.2-.3.4-.8.7-1.3.7Z" />
          </g>
          <path
            d="M48.8,76.1c-.1,0-.3,0-.4-.1-.4-.2-.5-.7-.3-1.1l11.2-18.6c.2-.4.7-.5,1.1-.3.4.2.5.7.3,1.1l-11.2,18.6c-.1.2-.4.4-.7.4Z" />
          <path class="cls-22"
            d="M45.2,97.8s0,0-.1,0c-.4,0-.7-.5-.7-.9l3.5-21.7c0-.4.5-.7.9-.7.4,0,.7.5.7.9l-3.5,21.7c0,.4-.4.7-.8.7Z" />
          <path class="cls-4"
            d="M51.5,73.3c1.1,1.5.8,3.7-.8,4.8-1.5,1.1-3.7.8-4.8-.8-1.1-1.5-.8-3.7.8-4.8,1.5-1.1,3.7-.8,4.8.8Z" />
          <path class="cls-1"
            d="M49.9,75.1c.1.6-.3,1.2-.9,1.4-.6.1-1.2-.3-1.4-.9-.1-.6.3-1.2.9-1.4.6-.1,1.2.3,1.4.9Z" />
          <path class="cls-1"
            d="M49.9,75.1c.1.6-.3,1.2-.9,1.3-.6.1-1.2-.3-1.3-.9-.1-.6.3-1.2.9-1.3.6-.1,1.2.3,1.3.9Z" />
          <path class="cls-8"
            d="M42.4,45.3c-16.6,3.5-27.2,19.8-23.7,36.4,0,.2.1.4.2.6-3.2-16.5,7.3-32.5,23.7-35.9,16.3-3.5,32.4,6.8,36.3,23,0-.2,0-.3,0-.5-3.5-16.6-19.8-27.2-36.4-23.7Z" />
          <path class="cls-5"
            d="M35.7,37.9c-.2-.7.1-1.5.9-1.8l5.5-1.9c.7-.2,1.5.1,1.8.9h0c.2.7-.1,1.5-.9,1.8l-5.5,1.9c-.7.2-1.5-.1-1.8-.9Z" />
          <g>
            <path class="cls-5" d="M40.2,37.8l1.5,4.1" />
            <rect class="cls-25" x="40.7" y="37.7" width=".5" height="4.4"
              transform="translate(-11 16.1) rotate(-19.6)" />
          </g>
          <path class="cls-6"
            d="M29,114.6c-.2-.9.4-1.8,1.3-2,.9-.2,1.8.4,2,1.3.2.9-.4,1.8-1.3,2-.9.2-1.8-.4-2-1.3Z" />
          <path class="cls-6"
            d="M79.8,104.2c-.2-.9.4-1.8,1.3-2,.9-.2,1.8.4,2,1.3.2.9-.4,1.8-1.3,2-.9.2-1.8-.4-2-1.3Z" />
          <path class="cls-14"
            d="M11.1,45.8c3.3-4,6.9-7.2,11-10.4,2.2-2,4.9-1.5,6.8-.8,1.6.6,4,2.9,5.2,4.1-5.2,3.5-13,10.1-20.5,18.7h0l-2.2-2.6c-2-2.2-2.5-6.9-.3-8.9Z" />
          <path class="cls-14"
            d="M70.9,33.1c-4.6-2.3-9.2-3.8-14.3-5.1-2.8-.9-5.1.6-6.6,2-1.3,1.2-2.5,4.3-3.1,5.8,6.2,1.1,16,4,26.3,8.7h0l.9-3.3c.9-2.8-.5-7.3-3.3-8.2Z" />
        </g>
      </g>
    </g>
  </g>
</svg>