<svg width="789" height="870" xmlns="http://www.w3.org/2000/svg" xmlns:xlink="http://www.w3.org/1999/xlink" xml:space="preserve" overflow="hidden"><defs><linearGradient x1="3841.7" y1="797.665" x2="4116.7" y2="797.665" gradientUnits="userSpaceOnUse" spreadMethod="reflect" id="fill0"><stop offset="0" stop-color="#9A9996"/><stop offset="0.04143" stop-color="#C0BFBC"/><stop offset="0.08152" stop-color="#9A9996"/><stop offset="0.89902" stop-color="#77767B"/><stop offset="0.95287" stop-color="#C0BFBC"/><stop offset="1" stop-color="#77767B"/></linearGradient><linearGradient x1="3641.34" y1="566.999" x2="4315.34" y2="566.999" gradientUnits="userSpaceOnUse" spreadMethod="reflect" id="fill1"><stop offset="0" stop-color="#3D3846"/><stop offset="0.02796" stop-color="#79718E"/><stop offset="0.0654" stop-color="#4E475A"/><stop offset="0.93818" stop-color="#716881"/><stop offset="0.97188" stop-color="#847A96"/><stop offset="1" stop-color="#3D3846"/></linearGradient><linearGradient x1="3731.59" y1="870.71" x2="4222.96" y2="240.938" gradientUnits="userSpaceOnUse" spreadMethod="reflect" id="fill2"><stop offset="0" stop-color="#53D795"/><stop offset="0.5" stop-color="#40A1C8"/><stop offset="1" stop-color="#266EC6"/></linearGradient></defs><g transform="translate(-3584 -289)"><path d="M3612 954C3612 856.245 3776.09 777 3978.5 777 4180.91 777 4345 856.245 4345 954 4345 1051.75 4180.91 1131 3978.5 1131 3776.09 1131 3612 1051.75 3612 954Z" stroke="#DC8ADD" stroke-width="56.1458" stroke-miterlimit="8" fill="none" fill-rule="evenodd"/><path d="M3635 898 4324.39 898" stroke="#DC8ADD" stroke-width="56.1458" stroke-miterlimit="8" fill="none" fill-rule="evenodd"/><path d="M3635 898 4192.73 1094.77" stroke="#DC8ADD" stroke-width="56.1458" stroke-miterlimit="8" fill="none" fill-rule="evenodd"/><path d="M0 0 213.033 318.385" stroke="#DC8ADD" stroke-width="56.1458" stroke-miterlimit="8" fill="none" fill-rule="evenodd" transform="matrix(-1 0 0 1 3979.03 777)"/><path d="M0 0 557.728 196.773" stroke="#DC8ADD" stroke-width="56.1458" stroke-miterlimit="8" fill="none" fill-rule="evenodd" transform="matrix(1 0 0 -1 3766 1094.77)"/><path d="M3635 898 4324.39 898" stroke="#DC8ADD" stroke-width="56.1458" stroke-miterlimit="8" fill="none" fill-rule="evenodd"/><path d="M3979 777 4192.03 1095.39" stroke="#DC8ADD" stroke-width="56.1458" stroke-miterlimit="8" fill="none" fill-rule="evenodd"/><path d="M3612 936C3612 838.246 3776.09 759 3978.5 759 4180.91 759 4345 838.246 4345 936 4345 1033.75 4180.91 1113 3978.5 1113 3776.09 1113 3612 1033.75 3612 936Z" stroke="transparent" stroke-width="56.1458" stroke-miterlimit="8" fill="none" fill-rule="evenodd"/><path d="M3635 880 4324.39 880" stroke="transparent" stroke-width="56.1458" stroke-miterlimit="8" fill="none" fill-rule="evenodd"/><path d="M3635 880 4192.73 1076.77" stroke="transparent" stroke-width="56.1458" stroke-miterlimit="8" fill="none" fill-rule="evenodd"/><path d="M0 0 213.033 318.385" stroke="transparent" stroke-width="56.1458" stroke-miterlimit="8" fill="none" fill-rule="evenodd" transform="matrix(-1 0 0 1 3979.03 759)"/><path d="M0 0 557.728 196.773" stroke="transparent" stroke-width="56.1458" stroke-miterlimit="8" fill="none" fill-rule="evenodd" transform="matrix(1 0 0 -1 3766 1076.77)"/><path d="M3635 880 4324.39 880" stroke="transparent" stroke-width="56.1458" stroke-miterlimit="8" fill="none" fill-rule="evenodd"/><path d="M3979 759 4192.03 1077.39" stroke="transparent" stroke-width="56.1458" stroke-miterlimit="8" fill="none" fill-rule="evenodd"/><path d="M3862.37 643.665 4096.04 643.665C4107.49 643.665 4116.7 652.808 4116.7 664.163L4116.7 931.169C4116.7 942.524 4107.49 951.666 4096.04 951.666L3862.37 951.666C3850.92 951.666 3841.7 942.524 3841.7 931.169L3841.7 664.163C3841.7 652.808 3850.92 643.665 3862.37 643.665Z" fill="url(#fill0)" fill-rule="evenodd"/><path d="M3862.37 631.672 4096.04 631.672C4107.49 631.672 4116.7 640.813 4116.7 652.169L4116.7 919.174C4116.7 930.53 4107.49 939.672 4096.04 939.672L3862.37 939.672C3850.92 939.672 3841.7 930.53 3841.7 919.174L3841.7 652.169C3841.7 640.813 3850.92 631.672 3862.37 631.672Z" fill="#77767B" fill-rule="evenodd"/><path d="M3841.7 549.71 4116.7 549.71 4116.7 871.711 3841.7 871.711Z" fill="#434348" fill-rule="evenodd" fill-opacity="0.509804"/><path d="M4315.34 347.899 4315.34 786.099C4315.34 818.076 4289.49 843.999 4257.61 843.999L3699.07 843.999C3667.19 843.999 3641.34 818.076 3641.34 786.099L3641.34 347.899C3641.34 315.922 3667.19 289.999 3699.07 289.999L4257.61 289.999C4289.49 289.999 4315.34 315.922 4315.34 347.899Z" fill="url(#fill1)" fill-rule="evenodd"/><path d="M4315.34 347.912 4315.34 762.092C4315.34 794.075 4289.49 820.002 4257.61 820.002L3699.07 820.002C3667.19 820.002 3641.34 794.075 3641.34 762.092L3641.34 347.912C3641.34 315.929 3667.19 290.002 3699.07 290.002L4257.61 290.002C4289.49 290.002 4315.34 315.929 4315.34 347.912Z" fill="#241F31" fill-rule="evenodd"/><path d="M4257.86 302.824C4282.39 302.824 4302.27 322.77 4302.27 347.374L4302.27 764.274C4302.27 788.878 4282.39 808.824 4257.86 808.824L3696.69 808.824C3672.16 808.824 3652.27 788.878 3652.27 764.274L3652.27 347.374C3652.27 322.77 3672.16 302.824 3696.69 302.824Z" fill="url(#fill2)" fill-rule="evenodd"/><path d="M3979.11 355.989C3964.42 355.989 3952.53 367.904 3952.53 382.59L3952.53 515.589C3952.53 530.272 3964.42 542.191 3979.11 542.191 3993.79 542.191 4005.69 530.272 4005.69 515.589L4005.69 382.59C4005.69 367.904 3993.79 355.989 3979.11 355.989ZM3895.79 404.292C3892.33 404.745 3889 405.89 3885.98 407.619 3813.29 449.726 3777.73 535.752 3799.44 616.963 3821.15 698.145 3894.87 754.858 3978.84 754.991 4062.83 755.097 4136.71 698.623 4158.67 617.468 4180.62 536.339 4145.32 450.207 4072.75 407.886 4060.08 400.491 4043.82 404.773 4036.41 417.461 4029 430.121 4033.26 446.43 4045.93 453.85 4045.94 453.85 4045.96 453.85 4045.97 453.878 4097.98 484.203 4123.11 545.381 4107.38 603.555 4091.64 661.704 4039.15 701.869 3978.95 701.791 3918.75 701.711 3866.35 661.409 3850.78 603.186 3835.22 544.955 3860.45 483.83 3912.55 453.663 3925.25 446.297 3929.59 430.069 3922.26 417.356 3918.73 411.237 3912.93 406.793 3906.12 404.984 3902.75 404.081 3899.24 403.842 3895.79 404.292Z" fill="#FFFFFF" fill-rule="evenodd"/></g></svg>